# xmcd
#
# Track frame offsets: 
#        150
#        17600
#        36935
#        55996
#        77581
#        96036
#        116276
#        138911
#        159243
#        184365
#        207491
#        229202
#        249529
#        269003
#        286283
#
# Disc length: 4072 seconds
#
# Revision: 2
# Processed by: cddbd v1.5.2PL0 Copyright (c) Steve Scherf et al.
# Submitted via: ExactAudioCopyFreeDBPlugin 1.0
#
DISCID=cf0fe60f
DTITLE=杨蔓 - DTS51蓝眼泪2
DYEAR=2008
DGENRE=DTS
TTITLE0=爱不分
TTITLE1=爱人好累
TTITLE2=爱上你给的痛
TTITLE3=爱一个人好难
TTITLE4=不要用我的爱来伤害我
TTITLE5=不值得
TTITLE6=第一滴泪
TTITLE7=放我的真心在你的手心
TTITLE8=黄昏
TTITLE9=来生再续缘
TTITLE10=泪海
TTITLE11=你最珍贵
TTITLE12=容易受伤的女人
TTITLE13=心碎了无痕
TTITLE14=遗失的美好
EXTD=
EXTT0=
EXTT1=
EXTT2=
EXTT3=
EXTT4=
EXTT5=
EXTT6=
EXTT7=
EXTT8=
EXTT9=
EXTT10=
EXTT11=
EXTT12=
EXTT13=
EXTT14=
PLAYORDER=
